<?xml version="1.0" encoding="utf-8"?>
<!-- Generator: Adobe Illustrator 22.1.0, SVG Export Plug-In . SVG Version: 6.00 Build 0)  -->
<svg version="1.1" id="Layer_1" xmlns="http://www.w3.org/2000/svg" xmlns:xlink="http://www.w3.org/1999/xlink" x="0px" y="0px"
	 viewBox="0 0 372.6 102" style="enable-background:new 0 0 372.6 102;" xml:space="preserve">
<style type="text/css">
	.st0{fill:#878787;}
</style>
<g>
	<g>
		<g>
			<g>
				<path d="M3.2,31.1c-1.9-0.2-3-1.1-3.2-2.9V13.6C0.9,7.6,3.9,4.3,9.2,4h39.6c1.6,0,2.4,0.8,2.4,2.4v5.9c0,1.9-0.8,2.8-2.4,2.8
					H17.6c-1.7,0-2.6,0.9-2.6,2.8c0,1.8,0.8,2.8,2.4,3h31.2c1.6,0,2.4,1,2.6,2.9V39c-0.8,5.8-3.8,8.8-9.2,9.1H2.2
					c-1.3,0-2-0.7-2.2-2.2v-6.3c0.1-1.8,0.9-2.8,2.4-2.8h31.4c1.7,0,2.5-0.8,2.5-2.4c0-1.8-0.8-2.9-2.5-3.3H3.2z"/>
				<path d="M78.9,8.5v35.2c-0.2,2.4-1.2,3.8-3,4.3h-10c-1.3-0.5-2.3-2-3-4.3V8.1C63.5,5.9,64.6,4.5,66,4h9.8
					C77.6,4.8,78.6,6.3,78.9,8.5z"/>
				<path d="M108.2,15.3c-1.6,0-2.4,0.9-2.4,2.6c0,2.1,0.8,3.1,2.4,3.1h36.4c1.5,0,2.2,0.8,2.2,2.5v4.7c0,1.9-0.8,2.9-2.4,2.9h-36
					c-1.7,0-2.6,0.9-2.6,2.7c0,2.1,0.9,3.2,2.6,3.2h36.2c1.5,0,2.2,0.9,2.2,2.8V45c0,2.1-0.7,3.2-2.2,3.2H100
					c-5.3-0.4-8.4-3.6-9.2-9.6V13.6C90.9,7.2,94,4,100,4h44.6c1.5,0,2.2,1,2.2,2.9v5.8c0,1.8-0.7,2.7-2.2,2.7H108.2z"/>
				<path d="M161.5,31.1c-1.9-0.2-3-1.1-3.2-2.9V13.6c0.9-6.1,3.9-9.3,9.2-9.7h39.6c1.6,0,2.4,0.8,2.4,2.4v5.9
					c0,1.9-0.8,2.8-2.4,2.8h-31.2c-1.7,0-2.6,0.9-2.6,2.8c0,1.8,0.8,2.8,2.4,3h31.2c1.6,0,2.4,1,2.6,2.9V39
					c-0.8,5.8-3.8,8.8-9.2,9.1h-40c-1.3,0-2-0.7-2.2-2.2v-6.3c0.1-1.8,0.9-2.8,2.4-2.8h31.5c1.7,0,2.5-0.8,2.5-2.4
					c0-1.8-0.8-2.9-2.5-3.3H161.5z"/>
				<path d="M287.9,46c0,1.4-0.6,2.2-1.8,2.2h-57.5c-4.7-0.6-7.4-3.5-8.1-8.7V12.4c0.7-5.1,3.7-7.9,8.8-8.4H268
					c5,0.5,7.9,3.3,8.6,8.4v21.8c0,1.4,0.7,2.2,2,2.2h7.3c1.3,0,2,0.8,2,2.4V46z M256.6,36.3h1.5c1.8,0,2.7-1.2,2.7-3.7V19.9
					c0-2.8-1.2-4.2-3.6-4.3h-16.8c-2.5,0-3.8,1.5-3.8,4.6V32c0,2.9,1,4.3,2.9,4.3H256.6z"/>
				<path d="M333.3,48.1h-29.6c-4.7-0.6-7.4-3.5-8.1-8.7V12.4c0.7-5.1,3.7-7.9,8.8-8.4h38.6c5,0.5,7.9,3.3,8.6,8.4v27.8
					c-0.8,5-3.5,7.7-8,8H333.3z M315.5,15.5c-2.5,0-3.8,1.5-3.8,4.6V32c0,2.9,1,4.3,2.9,4.3h18.5c1.9,0,2.8-1.2,2.8-3.7V19.9
					c0-2.8-1.2-4.2-3.6-4.3H315.5z"/>
			</g>
			<g>
				<path class="st0" d="M6.6,91.3c-3.1,0-5.7-1.5-5.7-6.3c0-4.2,2.1-7.1,6.5-7.1c1,0,2,0.2,3,0.4L10,80.4c-0.8-0.3-1.8-0.5-2.8-0.5
					c-2.6,0-3.9,1.9-3.9,4.9c0,2.5,0.8,4.6,3.7,4.6c1.1,0,2.3-0.3,3.1-0.7l0.2,2C9.5,90.9,8.1,91.3,6.6,91.3z"/>
				<path class="st0" d="M22.2,91.3c-3.5,0-5.8-2-5.8-6.6c0-3.8,2.4-6.9,6.3-6.9c3.3,0,5.9,1.8,5.9,6.5C28.5,88.3,26,91.3,22.2,91.3
					z M22.5,79.8c-1.9,0-3.7,1.4-3.7,4.7c0,3.1,1.3,4.9,3.7,4.9c1.9,0,3.6-1.5,3.6-4.8C26.1,81.6,24.9,79.8,22.5,79.8z"/>
				<path class="st0" d="M52.5,91.1v-8.3c0-1.8-0.4-3-2.1-3c-1.9,0-3.6,2-3.6,5.1v6.2h-2.3v-8.4c0-1.6-0.3-2.9-2.1-2.9
					c-2,0-3.6,2.1-3.6,5.1v6.2h-2.4v-13h2.3c0,0.8-0.1,1.9-0.2,2.7l0.1,0c0.8-1.8,2.4-3,4.5-3c2.7,0,3.5,1.9,3.6,3
					c0.5-1.2,1.9-3,4.4-3c2.5,0,3.9,1.3,3.9,4.3v9H52.5z"/>
				<path class="st0" d="M80,91.1v-8.3c0-1.8-0.4-3-2.1-3c-1.9,0-3.6,2-3.6,5.1v6.2h-2.3v-8.4c0-1.6-0.3-2.9-2.1-2.9
					c-2,0-3.6,2.1-3.6,5.1v6.2h-2.4v-13h2.3c0,0.8-0.1,1.9-0.2,2.7l0.1,0c0.8-1.8,2.4-3,4.5-3c2.7,0,3.5,1.9,3.6,3
					c0.5-1.2,1.9-3,4.4-3c2.5,0,3.9,1.3,3.9,4.3v9H80z"/>
				<path class="st0" d="M99.7,91.1c0-0.8,0.1-2,0.2-2.7l-0.1,0c-0.8,1.8-2.4,3-4.6,3c-3,0-3.9-1.9-3.9-4.2v-9.1h2.3v8.4
					c0,1.8,0.5,2.9,2.2,2.9c2.1,0,3.7-2.2,3.7-5.1v-6.3h2.3v13H99.7z"/>
				<path class="st0" d="M119.2,91.1v-8.4c0-1.8-0.5-2.9-2.2-2.9c-2.1,0-3.7,2.2-3.7,5.1v6.3h-2.4v-13h2.3c0,0.8-0.1,2-0.2,2.7
					l0.1,0c0.8-1.8,2.4-3,4.6-3c3,0,3.9,1.9,3.9,4.2v9.1H119.2z"/>
				<path class="st0" d="M131.6,76c-0.9,0-1.6-0.7-1.6-1.5c0-0.8,0.7-1.5,1.6-1.5c0.9,0,1.6,0.7,1.6,1.5
					C133.2,75.2,132.5,76,131.6,76z M130.4,91.1v-13h2.4v13H130.4z"/>
				<path class="st0" d="M146.3,91.3c-3.1,0-5.7-1.5-5.7-6.3c0-4.2,2.1-7.1,6.5-7.1c1,0,2,0.2,3,0.4l-0.3,2.1
					c-0.8-0.3-1.8-0.5-2.8-0.5c-2.6,0-3.9,1.9-3.9,4.9c0,2.5,0.8,4.6,3.7,4.6c1.1,0,2.3-0.3,3.1-0.7l0.2,2
					C149.2,90.9,147.8,91.3,146.3,91.3z"/>
				<path class="st0" d="M164.6,91.1c0-0.9,0-1.9,0.1-2.6h-0.1c-0.6,1.6-2.3,2.8-4.4,2.8c-2.1,0-3.6-1.2-3.6-3.2
					c0-2.9,2.9-4.7,7.8-4.7v-1c0-1.8-0.7-2.8-2.9-2.8c-1.2,0-2.8,0.4-3.9,1.1l-0.2-2c1.3-0.5,2.8-0.9,4.6-0.9c3.7,0,4.8,1.8,4.8,4.3
					v5.2c0,1.2,0,2.6,0.1,3.7H164.6z M164.4,85.1c-4.5,0-5.5,1.4-5.5,2.6c0,1.1,0.8,1.8,2,1.8c2.1,0,3.5-2.1,3.5-4.1V85.1z"/>
				<path class="st0" d="M179.5,91.3c-2.7,0-3.5-1.1-3.5-3.9v-7.5h-2.7v-1.8h2.7v-4.2l2.4-0.7v4.9h3.6v1.8h-3.6v6.6
					c0,2.1,0.4,2.7,1.9,2.7c0.6,0,1.3-0.1,1.8-0.2v2C181.2,91.2,180.3,91.3,179.5,91.3z"/>
				<path class="st0" d="M190.9,76c-0.9,0-1.6-0.7-1.6-1.5c0-0.8,0.7-1.5,1.6-1.5s1.6,0.7,1.6,1.5C192.4,75.2,191.7,76,190.9,76z
					 M189.7,91.1v-13h2.4v13H189.7z"/>
				<path class="st0" d="M205.6,91.3c-3.5,0-5.8-2-5.8-6.6c0-3.8,2.4-6.9,6.3-6.9c3.3,0,5.9,1.8,5.9,6.5
					C212,88.3,209.5,91.3,205.6,91.3z M205.9,79.8c-1.9,0-3.7,1.4-3.7,4.7c0,3.1,1.3,4.9,3.7,4.9c1.9,0,3.6-1.5,3.6-4.8
					C209.5,81.6,208.3,79.8,205.9,79.8z"/>
				<path class="st0" d="M228,91.1v-8.4c0-1.8-0.5-2.9-2.2-2.9c-2.1,0-3.7,2.2-3.7,5.1v6.3h-2.4v-13h2.3c0,0.8-0.1,2-0.2,2.7l0.1,0
					c0.8-1.8,2.4-3,4.6-3c3,0,3.9,1.9,3.9,4.2v9.1H228z"/>
				<path class="st0" d="M256.5,91.1c0-0.9,0-1.9,0.1-2.6h-0.1c-0.6,1.6-2.3,2.8-4.4,2.8c-2.1,0-3.6-1.2-3.6-3.2
					c0-2.9,2.9-4.7,7.8-4.7v-1c0-1.8-0.7-2.8-2.9-2.8c-1.2,0-2.8,0.4-3.9,1.1l-0.2-2c1.3-0.5,2.8-0.9,4.6-0.9c3.7,0,4.8,1.8,4.8,4.3
					v5.2c0,1.2,0,2.6,0.1,3.7H256.5z M256.3,85.1c-4.5,0-5.5,1.4-5.5,2.6c0,1.1,0.8,1.8,2,1.8c2.1,0,3.5-2.1,3.5-4.1V85.1z"/>
				<path class="st0" d="M272,97.9c-3.4,0-5.5-1.3-5.5-3.8c0-1.5,1-2.8,2.1-3.4c-0.8-0.4-1.3-1-1.3-1.9c0-0.9,0.6-1.8,1.5-2.2
					c-1.3-0.7-1.9-2.1-1.9-3.7c0-2.7,2.1-5,5.7-5c0.8,0,1.4,0.1,2,0.2h4.4V80h-2.2c0.7,0.5,1.1,1.4,1.1,2.5c0,2.8-1.9,4.8-5.7,4.8
					c-0.5,0-1.2-0.1-1.6-0.2c-0.6,0.2-0.8,0.7-0.8,1.1c0,0.7,0.7,1,2.2,1h2.4c2.8,0,4.4,1.4,4.4,3.7C278.9,95.7,276.1,97.9,272,97.9
					z M273.8,91.2h-3.3c-1,0.5-1.7,1.4-1.7,2.4c0,1.5,1.5,2.4,3.5,2.4c2.7,0,4.2-1.1,4.2-2.7C276.6,92,275.7,91.2,273.8,91.2z
					 M272.5,79.6c-2.1,0-3.3,1.3-3.3,3c0,1.9,1.2,3,3.2,3c2,0,3.2-1.1,3.2-3C275.7,80.7,274.5,79.6,272.5,79.6z"/>
				<path class="st0" d="M296.5,84.5h-8.5c-0.1,3.5,1.3,5,4.1,5c1.3,0,2.7-0.3,3.8-0.8l0.2,1.9c-1.3,0.5-2.8,0.8-4.4,0.8
					c-4,0-6.2-2.1-6.2-6.7c0-3.9,2.1-6.8,5.8-6.8c3.7,0,5.2,2.5,5.2,5.5C296.5,83.6,296.5,84,296.5,84.5z M291.2,79.6
					c-1.7,0-2.9,1.3-3.2,3.2h6.1C294.2,80.9,293,79.6,291.2,79.6z"/>
				<path class="st0" d="M312.7,91.1v-8.4c0-1.8-0.5-2.9-2.2-2.9c-2.1,0-3.7,2.2-3.7,5.1v6.3h-2.4v-13h2.3c0,0.8-0.1,2-0.2,2.7
					l0.1,0c0.8-1.8,2.4-3,4.6-3c3,0,3.9,1.9,3.9,4.2v9.1H312.7z"/>
				<path class="st0" d="M328.6,91.3c-3.1,0-5.7-1.5-5.7-6.3c0-4.2,2.1-7.1,6.5-7.1c1,0,2,0.2,3,0.4l-0.3,2.1
					c-0.8-0.3-1.8-0.5-2.8-0.5c-2.6,0-3.9,1.9-3.9,4.9c0,2.5,0.8,4.6,3.7,4.6c1.1,0,2.3-0.3,3.1-0.7l0.2,2
					C331.5,90.9,330.1,91.3,328.6,91.3z"/>
				<path class="st0" d="M344.6,92.4c-1.5,4-2.7,5.3-5.6,5.3c-0.5,0-1.2-0.1-1.7-0.2l0.2-2.1c0.6,0.2,1.1,0.3,1.7,0.3
					c1.4,0,2.2-0.7,3.1-3.2l0.6-1.5l-4.9-13h2.7l2.5,6.8c0.4,1.2,0.7,2.2,1,3.2h0.1c0.2-0.9,0.8-2.6,1.3-4l2.1-6h2.6L344.6,92.4z"/>
			</g>
		</g>
	</g>
	<g>
		<path d="M364.5,4.1c0.9,0,1.9,0.2,2.8,0.7c0.9,0.5,1.6,1.2,2.1,2.1c0.5,0.9,0.8,1.8,0.8,2.8c0,1-0.2,1.9-0.7,2.8
			c-0.5,0.9-1.2,1.6-2.1,2.1c-0.9,0.5-1.8,0.7-2.8,0.7s-1.9-0.2-2.8-0.7c-0.9-0.5-1.6-1.2-2.1-2.1c-0.5-0.9-0.7-1.8-0.7-2.8
			c0-1,0.3-1.9,0.8-2.8c0.5-0.9,1.2-1.6,2.1-2.1C362.6,4.4,363.5,4.1,364.5,4.1z M364.5,5c-0.8,0-1.6,0.2-2.3,0.6
			c-0.7,0.4-1.3,1-1.8,1.7c-0.4,0.8-0.6,1.5-0.6,2.4c0,0.8,0.2,1.6,0.6,2.3c0.4,0.7,1,1.3,1.7,1.7c0.7,0.4,1.5,0.6,2.3,0.6
			s1.6-0.2,2.3-0.6c0.7-0.4,1.3-1,1.7-1.7c0.4-0.7,0.6-1.5,0.6-2.3c0-0.8-0.2-1.6-0.6-2.4c-0.4-0.8-1-1.3-1.8-1.7
			C366,5.2,365.3,5,364.5,5z M362,12.9V6.8h2.1c0.7,0,1.2,0.1,1.5,0.2c0.3,0.1,0.6,0.3,0.8,0.6c0.2,0.3,0.3,0.6,0.3,0.9
			c0,0.4-0.2,0.8-0.5,1.2c-0.3,0.3-0.7,0.5-1.3,0.6c0.2,0.1,0.4,0.2,0.5,0.3c0.2,0.2,0.5,0.6,0.9,1.2l0.7,1.2h-1.2l-0.5-1
			c-0.4-0.8-0.8-1.2-1-1.4c-0.2-0.1-0.4-0.2-0.8-0.2H363v2.6H362z M363,9.4h1.2c0.6,0,1-0.1,1.2-0.3c0.2-0.2,0.3-0.4,0.3-0.7
			c0-0.2-0.1-0.3-0.1-0.5c-0.1-0.1-0.2-0.2-0.4-0.3c-0.2-0.1-0.5-0.1-1-0.1H363V9.4z"/>
	</g>
</g>
</svg>
